<svg width="36" height="36" viewBox="0 0 36 36" fill="none" xmlns="http://www.w3.org/2000/svg">
<path d="M2 16H14C14.5304 16 15.0391 15.7893 15.4142 15.4142C15.7893 15.0391 16 14.5304 16 14V2C16 1.46957 15.7893 0.960859 15.4142 0.585786C15.0391 0.210714 14.5304 0 14 0H2C1.46957 0 0.960859 0.210714 0.585786 0.585786C0.210714 0.960859 0 1.46957 0 2V14C0 14.5304 0.210714 15.0391 0.585786 15.4142C0.960859 15.7893 1.46957 16 2 16ZM22 16H34C34.5304 16 35.0391 15.7893 35.4142 15.4142C35.7893 15.0391 36 14.5304 36 14V2C36 1.46957 35.7893 0.960859 35.4142 0.585786C35.0391 0.210714 34.5304 0 34 0H22C21.4696 0 20.9609 0.210714 20.5858 0.585786C20.2107 0.960859 20 1.46957 20 2V14C20 14.5304 20.2107 15.0391 20.5858 15.4142C20.9609 15.7893 21.4696 16 22 16ZM2 36H14C14.5304 36 15.0391 35.7893 15.4142 35.4142C15.7893 35.0391 16 34.5304 16 34V22C16 21.4696 15.7893 20.9609 15.4142 20.5858C15.0391 20.2107 14.5304 20 14 20H2C1.46957 20 0.960859 20.2107 0.585786 20.5858C0.210714 20.9609 0 21.4696 0 22V34C0 34.5304 0.210714 35.0391 0.585786 35.4142C0.960859 35.7893 1.46957 36 2 36ZM28 36C32.412 36 36 32.412 36 28C36 23.588 32.412 20 28 20C23.588 20 20 23.588 20 28C20 32.412 23.588 36 28 36Z" fill="#5f9af2"/>
</svg>
