<svg width="55" height="47" viewBox="0 0 55 47" fill="none" xmlns="http://www.w3.org/2000/svg">
<path d="M43.5417 32.6667C45.365 32.6667 47.1137 31.9424 48.403 30.653C49.6923 29.3637 50.4167 27.615 50.4167 25.7917C50.4167 23.9683 49.6923 22.2196 48.403 20.9303C47.1137 19.641 45.365 18.9167 43.5417 18.9167H40.1042V17.7708C40.1042 14.428 38.7762 11.2221 36.4125 8.85835C34.0488 6.49461 30.8428 5.16668 27.5 5.16668C21.7708 5.16668 16.8896 9.03959 15.3771 14.3333H13.75C11.3188 14.3333 8.98727 15.2991 7.26819 17.0182C5.5491 18.7373 4.58333 21.0689 4.58333 23.5C4.58333 25.9312 5.5491 28.2627 7.26819 29.9818C8.98727 31.7009 11.3188 32.6667 13.75 32.6667V21.2083H41.25V32.6667H43.5417ZM44.3667 14.425C50.3021 14.8375 55 19.7417 55 25.7917C55 27.2964 54.7036 28.7864 54.1278 30.1766C53.552 31.5668 52.7079 32.8299 51.6439 33.8939C50.5799 34.9579 49.3168 35.802 47.9266 36.3778C46.5364 36.9536 45.0464 37.25 43.5417 37.25H41.25V46.4167H13.75V37.25C10.1033 37.25 6.60591 35.8014 4.02728 33.2227C1.44866 30.6441 0 27.1467 0 23.5C0 16.4188 5.3625 10.575 12.2604 9.84168C13.7101 7.05156 15.8976 4.71283 18.5849 3.0803C21.2721 1.44778 24.3558 0.584087 27.5 0.583344C35.8417 0.583344 42.7854 6.54168 44.3667 14.425ZM18.3333 25.7917V41.8333H36.6667V25.7917H18.3333ZM20.625 37.25H34.375V39.5417H20.625V37.25ZM34.375 34.9583H20.625V32.6667H34.375V34.9583ZM20.625 28.0833H34.375V30.375H20.625V28.0833Z" fill="#5f9af2"/>
</svg>
