<svg width="557" height="254" viewBox="0 0 557 254" fill="none" xmlns="http://www.w3.org/2000/svg">
<g clip-path="url(#clip0_20_947)">
<path d="M70.6726 250.35L69.7168 250.134C80.3747 202.698 107.159 159.621 145.135 128.84C173.847 105.604 207.995 90.0636 244.364 83.6821C280.733 77.3007 318.126 80.2881 353.023 92.363C387.92 104.438 419.172 125.203 443.837 152.703C468.502 180.203 485.768 213.533 494.01 249.555L493.055 249.773C470.494 150.631 383.676 81.3888 281.929 81.3888C181.515 81.3888 92.6692 152.447 70.6726 250.35Z" fill="#3F3D56"/>
<path d="M440.718 134.447C455.413 134.447 467.326 122.525 467.326 107.817C467.326 93.1094 455.413 81.1866 440.718 81.1866C426.022 81.1866 414.109 93.1094 414.109 107.817C414.109 122.525 426.022 134.447 440.718 134.447Z" fill="#FF6584"/>
<path d="M430.609 214.286H429.629V253.019H430.609V214.286Z" fill="#3F3D56"/>
<path d="M439.651 219.222C439.714 232.766 430.193 243.79 430.193 243.79C430.193 243.79 420.57 232.855 420.508 219.311C420.446 205.767 429.967 194.743 429.967 194.743C429.967 194.743 439.589 205.678 439.651 219.222Z" fill="#6C63FF"/>
<path opacity="0.1" d="M439.651 219.222C439.714 232.766 430.193 243.79 430.193 243.79C430.193 243.79 420.57 232.855 420.508 219.311C420.446 205.767 429.967 194.743 429.967 194.743C429.967 194.743 439.589 205.678 439.651 219.222Z" fill="black"/>
<path opacity="0.4" d="M245.443 137.277C253.897 137.277 260.751 130.418 260.751 121.957C260.751 113.495 253.897 106.636 245.443 106.636C236.988 106.636 230.135 113.495 230.135 121.957C230.135 130.418 236.988 137.277 245.443 137.277Z" fill="#6C63FF"/>
<path opacity="0.4" d="M217.111 140.021C223.042 140.021 227.85 135.21 227.85 129.274C227.85 123.338 223.042 118.527 217.111 118.527C211.181 118.527 206.373 123.338 206.373 129.274C206.373 135.21 211.181 140.021 217.111 140.021Z" fill="#6C63FF"/>
<path opacity="0.4" d="M101.988 170.91C107.919 170.91 112.727 166.098 112.727 160.163C112.727 154.227 107.919 149.415 101.988 149.415C96.0577 149.415 91.25 154.227 91.25 160.163C91.25 166.098 96.0577 170.91 101.988 170.91Z" fill="#6C63FF"/>
<path opacity="0.4" d="M419.495 136.017C427.95 136.017 434.803 129.158 434.803 120.696C434.803 112.235 427.95 105.376 419.495 105.376C411.041 105.376 404.188 112.235 404.188 120.696C404.188 129.158 411.041 136.017 419.495 136.017Z" fill="#6C63FF"/>
<path d="M27.7428 248.713C28.5727 251.783 31.415 253.684 31.415 253.684C31.415 253.684 32.912 250.608 32.0821 247.538C31.2523 244.468 28.4099 242.566 28.4099 242.566C28.4099 242.566 26.9129 245.642 27.7428 248.713Z" fill="#3F3D56"/>
<path d="M28.9624 248.053C31.2394 250.271 31.5176 253.682 31.5176 253.682C31.5176 253.682 28.1038 253.495 25.8267 251.277C23.5496 249.058 23.2715 245.648 23.2715 245.648C23.2715 245.648 26.6853 245.834 28.9624 248.053Z" fill="#6C63FF"/>
<path d="M327.553 248.713C328.383 251.783 331.226 253.684 331.226 253.684C331.226 253.684 332.723 250.608 331.893 247.538C331.063 244.468 328.22 242.566 328.22 242.566C328.22 242.566 326.723 245.642 327.553 248.713Z" fill="#3F3D56"/>
<path d="M328.773 248.053C331.05 250.271 331.328 253.682 331.328 253.682C331.328 253.682 327.914 253.495 325.637 251.277C323.36 249.058 323.082 245.648 323.082 245.648C323.082 245.648 326.496 245.834 328.773 248.053Z" fill="#6C63FF"/>
<path d="M33.3802 225.635L31.3535 222.254L50.27 206.026H98.9127V210.759L81.3473 229.692L61.0793 233.749L33.3802 225.635Z" fill="#3F3D56"/>
<path d="M107.285 215.549V204.97H100.917V208.306L98.9119 206.026L82.6977 222.254L79.995 224.959L76.6172 238.482L82.6977 253.357H113.775V222.93L107.285 215.549Z" fill="#CCCCCC"/>
<path d="M82.6983 222.254H31.3535V253.357H82.6983V222.254Z" fill="#F2F2F2"/>
<path d="M75.6043 232.058H64.7949V241.524H75.6043V232.058Z" fill="#3F3D56"/>
<path d="M60.4036 231.72H50.9453V253.357H60.4036V231.72Z" fill="#CCCCCC"/>
<path d="M40.1354 235.101V231.72H36.082V235.101H39.7973H40.1354Z" fill="#3F3D56"/>
<path d="M39.7973 237.805H36.082V241.186H40.1354V237.805H39.7973Z" fill="#3F3D56"/>
<path d="M46.8914 231.72H42.8379V235.101H46.8914V231.72Z" fill="#3F3D56"/>
<path d="M46.8914 237.806H42.8379V241.186H46.8914V237.806Z" fill="#3F3D56"/>
<path d="M97.2218 235.439V232.058H93.168V235.439H96.8838H97.2218Z" fill="#3F3D56"/>
<path d="M96.8838 238.144H93.168V241.524H97.2218V238.144H96.8838Z" fill="#3F3D56"/>
<path d="M103.979 232.058H99.9258V235.439H103.979V232.058Z" fill="#3F3D56"/>
<path d="M103.979 238.144H99.9258V241.524H103.979V238.144Z" fill="#3F3D56"/>
<path d="M228.843 225.635L226.816 222.254L245.733 206.026H294.376V210.759L276.81 229.692L256.542 233.749L228.843 225.635Z" fill="#3F3D56"/>
<path d="M302.75 215.549V204.97H296.381V208.306L294.377 206.026L278.162 222.254L275.46 224.959L272.082 238.482L278.162 253.357H309.239V222.93L302.75 215.549Z" fill="#CCCCCC"/>
<path d="M278.161 222.254H226.816V253.357H278.161V222.254Z" fill="#F2F2F2"/>
<path d="M271.067 232.058H260.258V241.524H271.067V232.058Z" fill="#3F3D56"/>
<path d="M255.868 231.72H246.41V253.357H255.868V231.72Z" fill="#CCCCCC"/>
<path d="M235.6 235.101V231.72H231.547V235.101H235.262H235.6Z" fill="#3F3D56"/>
<path d="M235.262 237.805H231.547V241.186H235.6V237.805H235.262Z" fill="#3F3D56"/>
<path d="M242.356 231.72H238.303V235.101H242.356V231.72Z" fill="#3F3D56"/>
<path d="M242.356 237.806H238.303V241.186H242.356V237.806Z" fill="#3F3D56"/>
<path d="M292.687 235.439V232.058H288.633V235.439H292.349H292.687Z" fill="#3F3D56"/>
<path d="M292.349 238.144H288.633V241.524H292.687V238.144H292.349Z" fill="#3F3D56"/>
<path d="M299.442 232.058H295.389V235.439H299.442V232.058Z" fill="#3F3D56"/>
<path d="M299.442 238.144H295.389V241.524H299.442V238.144Z" fill="#3F3D56"/>
<path d="M137.421 168.838L134.043 166.133L152.959 149.229H200.926V164.105L169.849 185.066L137.421 168.838Z" fill="#3F3D56"/>
<path d="M209.671 158.712V149.567H203.302V151.807L200.925 149.229L185.387 166.133L179.307 170.19L169.879 239.127L184.097 253.357H217.14V166.809L209.671 158.712Z" fill="#CCCCCC"/>
<path d="M185.388 166.133H134.043V253.357H185.388V166.133Z" fill="#F2F2F2"/>
<path d="M163.431 232.058H153.973V253.357H163.431V232.058Z" fill="#CCCCCC"/>
<path d="M143.838 238.144V234.763H139.785V238.144H143.501H143.838Z" fill="#3F3D56"/>
<path d="M143.501 240.848H139.785V244.229H143.838V240.848H143.501Z" fill="#3F3D56"/>
<path d="M150.595 234.763H146.541V238.144H150.595V234.763Z" fill="#3F3D56"/>
<path d="M150.595 240.848H146.541V244.229H150.595V240.848Z" fill="#3F3D56"/>
<path d="M171.538 238.144V234.763H167.484V238.144H171.2H171.538Z" fill="#3F3D56"/>
<path d="M171.2 240.848H167.484V244.229H171.538V240.848H171.2Z" fill="#3F3D56"/>
<path d="M178.294 234.763H174.24V238.144H178.294V234.763Z" fill="#3F3D56"/>
<path d="M178.294 240.848H174.24V244.229H178.294V240.848Z" fill="#3F3D56"/>
<path d="M199.913 170.528V167.148H195.859V170.528H199.575H199.913Z" fill="#3F3D56"/>
<path d="M199.575 173.233H195.859V176.614H199.913V173.233H199.575Z" fill="#3F3D56"/>
<path d="M206.669 167.148H202.615V170.528H206.669V167.148Z" fill="#3F3D56"/>
<path d="M206.669 173.233H202.615V176.614H206.669V173.233Z" fill="#3F3D56"/>
<path d="M199.913 189.461V186.08H195.859V189.461H199.575H199.913Z" fill="#3F3D56"/>
<path d="M199.575 192.165H195.859V195.546H199.913V192.165H199.575Z" fill="#3F3D56"/>
<path d="M206.669 186.08H202.615V189.461H206.669V186.08Z" fill="#3F3D56"/>
<path d="M206.669 192.165H202.615V195.546H206.669V192.165Z" fill="#3F3D56"/>
<path d="M199.913 208.393V205.012H195.859V208.393H199.575H199.913Z" fill="#3F3D56"/>
<path d="M199.575 211.098H195.859V214.478H199.913V211.098H199.575Z" fill="#3F3D56"/>
<path d="M206.669 205.012H202.615V208.393H206.669V205.012Z" fill="#3F3D56"/>
<path d="M206.669 211.097H202.615V214.478H206.669V211.097Z" fill="#3F3D56"/>
<path d="M199.913 227.325V223.944H195.859V227.325H199.575H199.913Z" fill="#3F3D56"/>
<path d="M199.575 230.03H195.859V233.41H199.913V230.03H199.575Z" fill="#3F3D56"/>
<path d="M206.669 223.944H202.615V227.325H206.669V223.944Z" fill="#3F3D56"/>
<path d="M206.669 230.03H202.615V233.411H206.669V230.03Z" fill="#3F3D56"/>
<path d="M178.969 170.528H139.785V178.642H178.969V170.528Z" fill="#3F3D56"/>
<path d="M178.969 186.756H139.785V194.87H178.969V186.756Z" fill="#3F3D56"/>
<path d="M178.969 202.984H139.785V211.097H178.969V202.984Z" fill="#3F3D56"/>
<path d="M178.969 219.211H139.785V227.325H178.969V219.211Z" fill="#3F3D56"/>
<path d="M334.845 168.838L331.467 166.133L350.383 149.229H398.35V164.105L367.273 185.066L334.845 168.838Z" fill="#3F3D56"/>
<path d="M407.095 158.712V149.567H400.726V151.807L398.349 149.229L382.811 166.133L376.731 170.19L367.303 239.127L381.521 253.357H414.563V166.809L407.095 158.712Z" fill="#CCCCCC"/>
<path d="M382.812 166.133H331.467V253.357H382.812V166.133Z" fill="#F2F2F2"/>
<path d="M360.855 232.058H351.396V253.357H360.855V232.058Z" fill="#CCCCCC"/>
<path d="M341.262 238.144V234.763H337.209V238.144H340.925H341.262Z" fill="#3F3D56"/>
<path d="M340.925 240.848H337.209V244.229H341.262V240.848H340.925Z" fill="#3F3D56"/>
<path d="M348.018 234.763H343.965V238.144H348.018V234.763Z" fill="#3F3D56"/>
<path d="M348.018 240.848H343.965V244.229H348.018V240.848Z" fill="#3F3D56"/>
<path d="M368.962 238.144V234.763H364.908V238.144H368.624H368.962Z" fill="#3F3D56"/>
<path d="M368.624 240.848H364.908V244.229H368.962V240.848H368.624Z" fill="#3F3D56"/>
<path d="M375.718 234.763H371.664V238.144H375.718V234.763Z" fill="#3F3D56"/>
<path d="M375.718 240.848H371.664V244.229H375.718V240.848Z" fill="#3F3D56"/>
<path d="M397.337 170.528V167.148H393.283V170.528H396.999H397.337Z" fill="#3F3D56"/>
<path d="M396.999 173.233H393.283V176.614H397.337V173.233H396.999Z" fill="#3F3D56"/>
<path d="M404.093 167.148H400.039V170.528H404.093V167.148Z" fill="#3F3D56"/>
<path d="M404.093 173.233H400.039V176.614H404.093V173.233Z" fill="#3F3D56"/>
<path d="M397.337 189.461V186.08H393.283V189.461H396.999H397.337Z" fill="#3F3D56"/>
<path d="M396.999 192.165H393.283V195.546H397.337V192.165H396.999Z" fill="#3F3D56"/>
<path d="M404.093 186.08H400.039V189.461H404.093V186.08Z" fill="#3F3D56"/>
<path d="M404.093 192.165H400.039V195.546H404.093V192.165Z" fill="#3F3D56"/>
<path d="M397.337 208.393V205.012H393.283V208.393H396.999H397.337Z" fill="#3F3D56"/>
<path d="M396.999 211.098H393.283V214.478H397.337V211.098H396.999Z" fill="#3F3D56"/>
<path d="M404.093 205.012H400.039V208.393H404.093V205.012Z" fill="#3F3D56"/>
<path d="M404.093 211.097H400.039V214.478H404.093V211.097Z" fill="#3F3D56"/>
<path d="M397.337 227.325V223.944H393.283V227.325H396.999H397.337Z" fill="#3F3D56"/>
<path d="M396.999 230.03H393.283V233.41H397.337V230.03H396.999Z" fill="#3F3D56"/>
<path d="M404.093 223.944H400.039V227.325H404.093V223.944Z" fill="#3F3D56"/>
<path d="M404.093 230.03H400.039V233.411H404.093V230.03Z" fill="#3F3D56"/>
<path d="M376.393 170.528H337.209V178.642H376.393V170.528Z" fill="#3F3D56"/>
<path d="M376.393 186.756H337.209V194.87H376.393V186.756Z" fill="#3F3D56"/>
<path d="M376.393 202.984H337.209V211.097H376.393V202.984Z" fill="#3F3D56"/>
<path d="M376.393 219.211H337.209V227.325H376.393V219.211Z" fill="#3F3D56"/>
<path d="M443.108 168.838L439.73 166.133L458.647 149.229H506.614V164.105L475.537 185.066L443.108 168.838Z" fill="#3F3D56"/>
<path d="M515.36 158.712V149.567H508.992V151.807L506.615 149.229L491.076 166.133L484.996 170.19L475.568 239.127L489.786 253.357H522.829V166.809L515.36 158.712Z" fill="#CCCCCC"/>
<path d="M491.075 166.133H439.73V253.357H491.075V166.133Z" fill="#F2F2F2"/>
<path d="M469.118 232.058H459.66V253.357H469.118V232.058Z" fill="#CCCCCC"/>
<path d="M449.526 238.144V234.763H445.473V238.144H449.189H449.526Z" fill="#3F3D56"/>
<path d="M449.189 240.848H445.473V244.229H449.526V240.848H449.189Z" fill="#3F3D56"/>
<path d="M456.282 234.763H452.229V238.144H456.282V234.763Z" fill="#3F3D56"/>
<path d="M456.282 240.848H452.229V244.229H456.282V240.848Z" fill="#3F3D56"/>
<path d="M477.225 238.144V234.763H473.172V238.144H476.888H477.225Z" fill="#3F3D56"/>
<path d="M476.888 240.848H473.172V244.229H477.225V240.848H476.888Z" fill="#3F3D56"/>
<path d="M483.981 234.763H479.928V238.144H483.981V234.763Z" fill="#3F3D56"/>
<path d="M483.981 240.848H479.928V244.229H483.981V240.848Z" fill="#3F3D56"/>
<path d="M505.6 170.528V167.148H501.547V170.528H505.263H505.6Z" fill="#3F3D56"/>
<path d="M505.263 173.233H501.547V176.614H505.6V173.233H505.263Z" fill="#3F3D56"/>
<path d="M512.356 167.148H508.303V170.528H512.356V167.148Z" fill="#3F3D56"/>
<path d="M512.356 173.233H508.303V176.614H512.356V173.233Z" fill="#3F3D56"/>
<path d="M505.6 189.461V186.08H501.547V189.461H505.263H505.6Z" fill="#3F3D56"/>
<path d="M505.263 192.165H501.547V195.546H505.6V192.165H505.263Z" fill="#3F3D56"/>
<path d="M512.356 186.08H508.303V189.461H512.356V186.08Z" fill="#3F3D56"/>
<path d="M512.356 192.165H508.303V195.546H512.356V192.165Z" fill="#3F3D56"/>
<path d="M505.6 208.393V205.012H501.547V208.393H505.263H505.6Z" fill="#3F3D56"/>
<path d="M505.263 211.098H501.547V214.478H505.6V211.098H505.263Z" fill="#3F3D56"/>
<path d="M512.356 205.012H508.303V208.393H512.356V205.012Z" fill="#3F3D56"/>
<path d="M512.356 211.097H508.303V214.478H512.356V211.097Z" fill="#3F3D56"/>
<path d="M505.6 227.325V223.944H501.547V227.325H505.263H505.6Z" fill="#3F3D56"/>
<path d="M505.263 230.03H501.547V233.41H505.6V230.03H505.263Z" fill="#3F3D56"/>
<path d="M512.356 223.944H508.303V227.325H512.356V223.944Z" fill="#3F3D56"/>
<path d="M512.356 230.03H508.303V233.411H512.356V230.03Z" fill="#3F3D56"/>
<path d="M484.657 170.528H445.473V178.642H484.657V170.528Z" fill="#3F3D56"/>
<path d="M484.657 186.756H445.473V194.87H484.657V186.756Z" fill="#3F3D56"/>
<path d="M484.657 202.984H445.473V211.097H484.657V202.984Z" fill="#3F3D56"/>
<path d="M484.657 219.211H445.473V227.325H484.657V219.211Z" fill="#3F3D56"/>
<path d="M557 253.019H0V254H557V253.019Z" fill="#3F3D56"/>
<path d="M124.431 214.286H123.451V253.019H124.431V214.286Z" fill="#3F3D56"/>
<path d="M133.474 219.222C133.536 232.766 124.015 243.79 124.015 243.79C124.015 243.79 114.393 232.855 114.33 219.311C114.268 205.767 123.789 194.743 123.789 194.743C123.789 194.743 133.411 205.678 133.474 219.222Z" fill="#6C63FF"/>
<path d="M222.408 214.286H221.428V253.019H222.408V214.286Z" fill="#3F3D56"/>
<path d="M231.45 219.222C231.512 232.766 221.991 243.79 221.991 243.79C221.991 243.79 212.369 232.855 212.307 219.311C212.245 205.767 221.766 194.743 221.766 194.743C221.766 194.743 231.388 205.678 231.45 219.222Z" fill="#6C63FF"/>
<path d="M417.872 214.286H416.893V253.019H417.872V214.286Z" fill="#3F3D56"/>
<path d="M426.915 219.222C426.977 232.766 417.456 243.79 417.456 243.79C417.456 243.79 407.834 232.855 407.772 219.311C407.709 205.767 417.23 194.743 417.23 194.743C417.23 194.743 426.853 205.678 426.915 219.222Z" fill="#6C63FF"/>
<path d="M287.807 84.3551C298.088 84.3551 306.423 82.4782 306.423 80.163C306.423 77.8479 298.088 75.971 287.807 75.971C277.526 75.971 269.191 77.8479 269.191 80.163C269.191 82.4782 277.526 84.3551 287.807 84.3551Z" fill="#6C63FF"/>
<path d="M308.874 21.5729C308.874 33.4873 287.319 67.1703 287.319 67.1703C287.319 67.1703 265.764 33.4873 265.764 21.5729C265.764 15.8514 268.035 10.3643 272.077 6.31856C276.119 2.27285 281.602 0 287.319 0C293.035 0 298.518 2.27285 302.56 6.31856C306.603 10.3643 308.874 15.8514 308.874 21.5729Z" fill="#6C63FF"/>
<path d="M287.317 33.8303C294.081 33.8303 299.565 28.3425 299.565 21.5729C299.565 14.8034 294.081 9.31558 287.317 9.31558C280.554 9.31558 275.07 14.8034 275.07 21.5729C275.07 28.3425 280.554 33.8303 287.317 33.8303Z" fill="#F2F2F2"/>
</g>
<defs>
<clipPath id="clip0_20_947">
<rect width="557" height="254" fill="white"/>
</clipPath>
</defs>
</svg>
