<svg width="166" height="166" viewBox="0 0 166 166" fill="none" xmlns="http://www.w3.org/2000/svg">
<path d="M55.4991 83L73.8325 101.333L110.499 64.6667L55.4991 83ZM44.82 16.0558C51.3953 15.531 57.6375 12.9456 62.6583 8.6675C68.3316 3.82997 75.5433 1.17275 82.9991 1.17275C90.4549 1.17275 97.6666 3.82997 103.34 8.6675C108.361 12.9456 114.603 15.531 121.178 16.0558C128.61 16.6471 135.588 19.8676 140.86 25.1393C146.132 30.411 149.352 37.3889 149.943 44.8208C150.468 51.3961 153.054 57.6384 157.332 62.6592C162.169 68.3325 164.826 75.5442 164.826 83C164.826 90.4558 162.169 97.6675 157.332 103.341C153.054 108.362 150.468 114.604 149.943 121.179C149.352 128.611 146.132 135.589 140.86 140.861C135.588 146.132 128.61 149.353 121.178 149.944C114.603 150.469 108.361 153.054 103.34 157.332C97.6666 162.17 90.4549 164.827 82.9991 164.827C75.5433 164.827 68.3316 162.17 62.6583 157.332C57.6375 153.054 51.3953 150.469 44.82 149.944C37.3881 149.353 30.4102 146.132 25.1384 140.861C19.8667 135.589 16.6462 128.611 16.055 121.179C15.5302 114.604 12.9447 108.362 8.66662 103.341C3.82909 97.6675 1.17188 90.4558 1.17188 83C1.17187 75.5442 3.82909 68.3325 8.66662 62.6592C12.9447 57.6384 15.5302 51.3961 16.055 44.8208C16.6462 37.3889 19.8667 30.411 25.1384 25.1393C30.4102 19.8676 37.3881 16.6471 44.82 16.0558V16.0558Z" stroke="#2196F3" stroke-width="2" stroke-linecap="round" stroke-linejoin="round"/>
</svg>
