<svg width="55" height="43" viewBox="0 0 55 43" fill="none" xmlns="http://www.w3.org/2000/svg">
<path fill-rule="evenodd" clip-rule="evenodd" d="M54.4981 11.6894C54.6582 11.849 54.7851 12.0387 54.8718 12.2475C54.9584 12.4563 55.003 12.6802 55.003 12.9063C55.003 13.1323 54.9584 13.3562 54.8718 13.565C54.7851 13.7738 54.6582 13.9635 54.4981 14.1231L44.1856 24.4356C44.0259 24.5957 43.8363 24.7227 43.6275 24.8093C43.4187 24.896 43.1948 24.9406 42.9687 24.9406C42.7426 24.9406 42.5188 24.896 42.31 24.8093C42.1012 24.7227 41.9115 24.5957 41.7518 24.4356L36.5956 19.2794C36.2729 18.9566 36.0916 18.5189 36.0916 18.0625C36.0916 17.6061 36.2729 17.1684 36.5956 16.8456C36.9183 16.5229 37.3561 16.3416 37.8125 16.3416C38.2689 16.3416 38.7066 16.5229 39.0293 16.8456L42.9687 20.7884L52.0643 11.6894C52.224 11.5293 52.4137 11.4023 52.6225 11.3157C52.8313 11.229 53.0551 11.1844 53.2812 11.1844C53.5073 11.1844 53.7312 11.229 53.94 11.3157C54.1488 11.4023 54.3384 11.5293 54.4981 11.6894Z" fill="#5f9af2"/>
<path d="M3.4375 42.125C3.4375 42.125 0 42.125 0 38.6875C0 35.25 3.4375 24.9375 20.625 24.9375C37.8125 24.9375 41.25 35.25 41.25 38.6875C41.25 42.125 37.8125 42.125 37.8125 42.125H3.4375ZM20.625 21.5C23.36 21.5 25.9831 20.4135 27.917 18.4795C29.851 16.5456 30.9375 13.9225 30.9375 11.1875C30.9375 8.45246 29.851 5.82943 27.917 3.89546C25.9831 1.96149 23.36 0.875 20.625 0.875C17.89 0.875 15.2669 1.96149 13.333 3.89546C11.399 5.82943 10.3125 8.45246 10.3125 11.1875C10.3125 13.9225 11.399 16.5456 13.333 18.4795C15.2669 20.4135 17.89 21.5 20.625 21.5Z" fill="#5f9af2"/>
</svg>
