<svg width="52" height="52" viewBox="0 0 52 52" fill="none" xmlns="http://www.w3.org/2000/svg">
<path id="Vector" d="M44.6 0.6C45.2365 0.6 45.847 0.852856 46.297 1.30294C46.7471 1.75303 47 2.36348 47 3V17.4C47 18.0365 46.7471 18.647 46.297 19.0971C45.847 19.5471 45.2365 19.8 44.6 19.8C43.9635 19.8 43.353 19.5471 42.9029 19.0971C42.4528 18.647 42.2 18.0365 42.2 17.4V8.44L27.8192 21.5728C27.3627 21.99 26.7628 22.2149 26.1446 22.2006C25.5263 22.1863 24.9375 21.9339 24.5008 21.496L19.8 16.792L4.69599 31.896C4.24103 32.3199 3.63928 32.5507 3.01751 32.5398C2.39575 32.5288 1.80252 32.2769 1.3628 31.8372C0.923074 31.3975 0.671195 30.8042 0.660225 30.1825C0.649255 29.5607 0.880049 28.959 1.30398 28.504L18.104 11.704C18.554 11.2546 19.164 11.0021 19.8 11.0021C20.436 11.0021 21.046 11.2546 21.496 11.704L26.2736 16.4816L38.4112 5.4H30.2C29.5635 5.4 28.953 5.14714 28.5029 4.69706C28.0528 4.24697 27.8 3.63652 27.8 3C27.8 2.36348 28.0528 1.75303 28.5029 1.30294C28.953 0.852856 29.5635 0.6 30.2 0.6H44.6ZM51.8 37.4C51.8 41.2191 50.2828 44.8818 47.5823 47.5823C44.8818 50.2829 41.2191 51.8 37.4 51.8C33.5809 51.8 29.9182 50.2829 27.2176 47.5823C24.5171 44.8818 23 41.2191 23 37.4C23 33.5809 24.5171 29.9182 27.2176 27.2177C29.9182 24.5171 33.5809 23 37.4 23C41.2191 23 44.8818 24.5171 47.5823 27.2177C50.2828 29.9182 51.8 33.5809 51.8 37.4V37.4ZM46.616 31.56C46.4794 31.4003 46.3127 31.2691 46.1254 31.1738C45.9382 31.0785 45.7339 31.0211 45.5244 31.0047C45.3149 30.9884 45.1043 31.0135 44.9045 31.0785C44.7047 31.1436 44.5197 31.2474 44.36 31.384L34.2832 40.0208L30.5328 36.2672C30.2323 35.9668 29.8249 35.798 29.4 35.798C28.9751 35.798 28.5676 35.9668 28.2672 36.2672C27.9667 36.5676 27.798 36.9751 27.798 37.4C27.798 37.8249 27.9667 38.2324 28.2672 38.5328L33.0672 43.3328C33.3524 43.6188 33.7352 43.7863 34.1388 43.8017C34.5424 43.8171 34.9369 43.6793 35.2432 43.416L46.4432 33.816C46.7652 33.5397 46.9644 33.1469 46.9968 32.7238C47.0292 32.3007 46.8922 31.8821 46.616 31.56V31.56Z" fill="#5f9af2"/>
</svg>
