<svg width="129" height="129" viewBox="0 0 129 129" fill="none" xmlns="http://www.w3.org/2000/svg">
<path d="M50.25 0.375H7.5C5.61033 0.375 3.79806 1.12567 2.46186 2.46186C1.12567 3.79806 0.375 5.61033 0.375 7.5V50.25C0.375 52.1397 1.12567 53.9519 2.46186 55.2881C3.79806 56.6243 5.61033 57.375 7.5 57.375H50.25C52.1397 57.375 53.9519 56.6243 55.2881 55.2881C56.6243 53.9519 57.375 52.1397 57.375 50.25V7.5C57.375 5.61033 56.6243 3.79806 55.2881 2.46186C53.9519 1.12567 52.1397 0.375 50.25 0.375ZM121.5 71.625H78.75C76.8603 71.625 75.0481 72.3757 73.7119 73.7119C72.3757 75.0481 71.625 76.8603 71.625 78.75V121.5C71.625 123.39 72.3757 125.202 73.7119 126.538C75.0481 127.874 76.8603 128.625 78.75 128.625H121.5C123.39 128.625 125.202 127.874 126.538 126.538C127.874 125.202 128.625 123.39 128.625 121.5V78.75C128.625 76.8603 127.874 75.0481 126.538 73.7119C125.202 72.3757 123.39 71.625 121.5 71.625ZM100.125 0.375C84.4072 0.375 71.625 13.1572 71.625 28.875C71.625 44.5927 84.4072 57.375 100.125 57.375C115.843 57.375 128.625 44.5927 128.625 28.875C128.625 13.1572 115.843 0.375 100.125 0.375ZM28.875 71.625C13.1572 71.625 0.375 84.4072 0.375 100.125C0.375 115.843 13.1572 128.625 28.875 128.625C44.5927 128.625 57.375 115.843 57.375 100.125C57.375 84.4072 44.5927 71.625 28.875 71.625Z" fill="#5F9AF2"/>
</svg>
