<svg width="79" height="60" viewBox="0 0 79 60" fill="none" xmlns="http://www.w3.org/2000/svg">
<path d="M63.8734 24.3525C63.0702 11.955 54.4216 0 38.5595 0C24.0517 0 12.8638 10.7494 12.2713 25.095C4.33371 27.5569 0 36.0244 0 42.1875C0 51.6769 7.91129 60 16.9286 60H29.1548C29.4042 60 29.6434 59.9012 29.8198 59.7254C29.9962 59.5496 30.0952 59.3111 30.0952 59.0625C30.0952 58.8139 29.9962 58.5754 29.8198 58.3996C29.6434 58.2238 29.4042 58.125 29.1548 58.125H16.9286C8.91195 58.125 1.88095 50.6775 1.88095 42.1875C1.88095 36.4669 6.91062 26.25 16.9286 26.25H19.75C19.9994 26.25 20.2386 26.1512 20.415 25.9754C20.5914 25.7996 20.6905 25.5611 20.6905 25.3125C20.6905 25.0639 20.5914 24.8254 20.415 24.6496C20.2386 24.4738 19.9994 24.375 19.75 24.375H16.9286C15.9712 24.375 15.0664 24.4819 14.1843 24.6356C14.9216 13.4044 23.4856 1.875 38.5595 1.875C54.7131 1.875 62.0714 14.5106 62.0714 26.25V29.0625C62.0714 29.3111 62.1705 29.5496 62.3469 29.7254C62.5233 29.9012 62.7625 30 63.0119 30C63.2613 30 63.5005 29.9012 63.6769 29.7254C63.8533 29.5496 63.9524 29.3111 63.9524 29.0625V26.25V26.2331C69.631 26.8538 77.119 32.9287 77.119 42.1875C77.119 49.3613 70.1765 58.125 62.0714 58.125H47.9643C41.8738 58.125 39.5 55.7588 39.5 49.6875V23.9681L47.1705 31.5994C47.2572 31.689 47.3608 31.7606 47.4755 31.8099C47.5902 31.8592 47.7135 31.8852 47.8384 31.8865C47.9633 31.8877 48.0871 31.8642 48.2028 31.8172C48.3184 31.7702 48.4235 31.7007 48.512 31.6128C48.6004 31.525 48.6704 31.4204 48.7178 31.3052C48.7653 31.1901 48.7892 31.0667 48.7883 30.9422C48.7874 30.8177 48.7617 30.6947 48.7125 30.5802C48.6634 30.4658 48.5919 30.3622 48.5022 30.2756L40.1113 21.9281C38.994 20.8181 38.1269 20.8181 37.0115 21.9281L28.6206 30.2756C28.4493 30.4524 28.3545 30.6893 28.3566 30.9351C28.3587 31.1809 28.4577 31.416 28.632 31.5898C28.8064 31.7637 29.0423 31.8622 29.2889 31.8644C29.5355 31.8665 29.773 31.772 29.9504 31.6012L37.619 23.9681V49.6875C37.619 56.82 40.8091 60 47.9643 60H62.0714C71.1884 60 79 50.205 79 42.1875C79 32.4994 71.0567 24.9225 63.8734 24.3525Z" fill="#F44336"/>
</svg>
